<?xml version="1.0" encoding="UTF-8"?>
<!DOCTYPE svg PUBLIC "-//W3C//DTD SVG 1.1//EN" "http://www.w3.org/Graphics/SVG/1.1/DTD/svg11.dtd">
<svg version="1.2" width="215.9mm" height="279.4mm" viewBox="0 0 21590 27940" preserveAspectRatio="xMidYMid" fill-rule="evenodd" stroke-width="28.222" stroke-linejoin="round" xmlns="http://www.w3.org/2000/svg" xmlns:ooo="http://xml.openoffice.org/svg/export" xmlns:xlink="http://www.w3.org/1999/xlink" xmlns:presentation="http://sun.com/xmlns/staroffice/presentation" xmlns:smil="http://www.w3.org/2001/SMIL20/" xmlns:anim="urn:oasis:names:tc:opendocument:xmlns:animation:1.0" xml:space="preserve">
 <defs class="ClipPathGroup">
  <clipPath id="presentation_clip_path" clipPathUnits="userSpaceOnUse">
   <rect x="0" y="0" width="21590" height="27940"/>
  </clipPath>
  <clipPath id="presentation_clip_path_shrink" clipPathUnits="userSpaceOnUse">
   <rect x="21" y="27" width="21547" height="27885"/>
  </clipPath>
 </defs>
 <defs class="TextShapeIndex">
  <g ooo:slide="id1" ooo:id-list="id3 id4"/>
 </defs>
 <defs class="EmbeddedBulletChars">
  <g id="bullet-char-template-57356" transform="scale(0.00048828125,-0.00048828125)">
   <path d="M 580,1141 L 1163,571 580,0 -4,571 580,1141 Z"/>
  </g>
  <g id="bullet-char-template-57354" transform="scale(0.00048828125,-0.00048828125)">
   <path d="M 8,1128 L 1137,1128 1137,0 8,0 8,1128 Z"/>
  </g>
  <g id="bullet-char-template-10146" transform="scale(0.00048828125,-0.00048828125)">
   <path d="M 174,0 L 602,739 174,1481 1456,739 174,0 Z M 1358,739 L 309,1346 659,739 1358,739 Z"/>
  </g>
  <g id="bullet-char-template-10132" transform="scale(0.00048828125,-0.00048828125)">
   <path d="M 2015,739 L 1276,0 717,0 1260,543 174,543 174,936 1260,936 717,1481 1274,1481 2015,739 Z"/>
  </g>
  <g id="bullet-char-template-10007" transform="scale(0.00048828125,-0.00048828125)">
   <path d="M 0,-2 C -7,14 -16,27 -25,37 L 356,567 C 262,823 215,952 215,954 215,979 228,992 255,992 264,992 276,990 289,987 310,991 331,999 354,1012 L 381,999 492,748 772,1049 836,1024 860,1049 C 881,1039 901,1025 922,1006 886,937 835,863 770,784 769,783 710,716 594,584 L 774,223 C 774,196 753,168 711,139 L 727,119 C 717,90 699,76 672,76 641,76 570,178 457,381 L 164,-76 C 142,-110 111,-127 72,-127 30,-127 9,-110 8,-76 1,-67 -2,-52 -2,-32 -2,-23 -1,-13 0,-2 Z"/>
  </g>
  <g id="bullet-char-template-10004" transform="scale(0.00048828125,-0.00048828125)">
   <path d="M 285,-33 C 182,-33 111,30 74,156 52,228 41,333 41,471 41,549 55,616 82,672 116,743 169,778 240,778 293,778 328,747 346,684 L 369,508 C 377,444 397,411 428,410 L 1163,1116 C 1174,1127 1196,1133 1229,1133 1271,1133 1292,1118 1292,1087 L 1292,965 C 1292,929 1282,901 1262,881 L 442,47 C 390,-6 338,-33 285,-33 Z"/>
  </g>
  <g id="bullet-char-template-9679" transform="scale(0.00048828125,-0.00048828125)">
   <path d="M 813,0 C 632,0 489,54 383,161 276,268 223,411 223,592 223,773 276,916 383,1023 489,1130 632,1184 813,1184 992,1184 1136,1130 1245,1023 1353,916 1407,772 1407,592 1407,412 1353,268 1245,161 1136,54 992,0 813,0 Z"/>
  </g>
  <g id="bullet-char-template-8226" transform="scale(0.00048828125,-0.00048828125)">
   <path d="M 346,457 C 273,457 209,483 155,535 101,586 74,649 74,723 74,796 101,859 155,911 209,963 273,989 346,989 419,989 480,963 531,910 582,859 608,796 608,723 608,648 583,586 532,535 482,483 420,457 346,457 Z"/>
  </g>
  <g id="bullet-char-template-8211" transform="scale(0.00048828125,-0.00048828125)">
   <path d="M -4,459 L 1135,459 1135,606 -4,606 -4,459 Z"/>
  </g>
  <g id="bullet-char-template-61548" transform="scale(0.00048828125,-0.00048828125)">
   <path d="M 173,740 C 173,903 231,1043 346,1159 462,1274 601,1332 765,1332 928,1332 1067,1274 1183,1159 1299,1043 1357,903 1357,740 1357,577 1299,437 1183,322 1067,206 928,148 765,148 601,148 462,206 346,322 231,437 173,577 173,740 Z"/>
  </g>
 </defs>
 <g>
  <g id="id2" class="Master_Slide">
   <g id="bg-id2" class="Background"/>
   <g id="bo-id2" class="BackgroundObjects"/>
  </g>
 </g>
 <g class="SlideGroup">
  <g>
   <g id="container-id1">
    <g id="id1" class="Slide" clip-path="url(#presentation_clip_path)">
     <g class="Page">
      <g class="com.sun.star.drawing.CustomShape">
       <g id="id3">
        <rect class="BoundingBox" stroke="none" fill="none" x="5396" y="8571" width="10799" height="10799"/>
        <path fill="rgb(255,191,0)" stroke="none" d="M 16193,13970 C 16193,14918 15944,15848 15470,16669 14996,17490 14315,18171 13494,18645 12673,19119 11743,19368 10795,19368 9847,19368 8917,19119 8096,18645 7275,18171 6594,17490 6120,16669 5646,15848 5397,14918 5397,13970 5397,13022 5646,12092 6120,11271 6594,10450 7275,9769 8096,9295 8917,8821 9847,8572 10795,8572 11743,8572 12673,8821 13494,9295 14315,9769 14996,10450 15470,11271 15944,12092 16193,13022 16193,13970 L 16193,13970 Z"/>
        <path fill="none" stroke="rgb(52,101,164)" d="M 16193,13970 C 16193,14918 15944,15848 15470,16669 14996,17490 14315,18171 13494,18645 12673,19119 11743,19368 10795,19368 9847,19368 8917,19119 8096,18645 7275,18171 6594,17490 6120,16669 5646,15848 5397,14918 5397,13970 5397,13022 5646,12092 6120,11271 6594,10450 7275,9769 8096,9295 8917,8821 9847,8572 10795,8572 11743,8572 12673,8821 13494,9295 14315,9769 14996,10450 15470,11271 15944,12092 16193,13022 16193,13970 L 16193,13970 Z"/>
       </g>
      </g>
      <g class="com.sun.star.drawing.CustomShape">
       <g id="id4">
        <rect class="BoundingBox" stroke="none" fill="none" x="7983" y="10523" width="1591" height="1591"/>
        <path fill="rgb(255,255,255)" stroke="none" d="M 9572,11318 C 9572,11457 9535,11594 9466,11715 9396,11836 9296,11936 9175,12006 9054,12075 8917,12112 8778,12112 8639,12112 8502,12075 8381,12006 8260,11936 8160,11836 8090,11715 8021,11594 7984,11457 7984,11318 7984,11179 8021,11042 8090,10921 8160,10800 8260,10700 8381,10630 8502,10561 8639,10524 8778,10524 8917,10524 9054,10561 9175,10630 9296,10700 9396,10800 9466,10921 9535,11042 9572,11179 9572,11318 L 9572,11318 Z"/>
        <path fill="none" stroke="rgb(52,101,164)" d="M 9572,11318 C 9572,11457 9535,11594 9466,11715 9396,11836 9296,11936 9175,12006 9054,12075 8917,12112 8778,12112 8639,12112 8502,12075 8381,12006 8260,11936 8160,11836 8090,11715 8021,11594 7984,11457 7984,11318 7984,11179 8021,11042 8090,10921 8160,10800 8260,10700 8381,10630 8502,10561 8639,10524 8778,10524 8917,10524 9054,10561 9175,10630 9296,10700 9396,10800 9466,10921 9535,11042 9572,11179 9572,11318 Z"/>
       </g>
      </g>
     </g>
    </g>
   </g>
  </g>
 </g>
</svg>